# xmcd
# Track frame offsets:
# 150
# 11012
# 22146
# 34369
# 45817
# 54795
# 68576
# 81326
# 91248
# 110681
# 125586
# 147366
#
# Disc length: 2106 seconds
# Revision: 0
# Processed by: cddbd v1.5.2PL0 Copyright (c) Steve Scherf et al.
# Submitted via: VisiTrax 2.10.3.257 - For more info visit www.synapsa.com
#
DISCID=9b08380c
DTITLE=Tex Ritter - Sweet land of Liberty
DYEAR=1900
DGENRE=
TTITLE0=Remember The Alamo
TTITLE1=William Barret Travis
TTITLE2=Lincoln´s Farewell Adress
TTITLE3=Lincoln´s Gettysburg Adress
TTITLE4=A letter to Mrs.Bixby
TTITLE5=History repeats itself
TTITLE6=The pledge of Allegiance
TTITLE7=This land is your land
TTITLE8=A letter to my sons
TTITLE9=America our land
TTITLE10=The day for decision
TTITLE11=Old Glory
EXTD=
EXTT0=
EXTT1=
EXTT2=
EXTT3=
EXTT4=
EXTT5=
EXTT6=
EXTT7=
EXTT8=
EXTT9=
EXTT10=
EXTT11=
PLAYORDER=
